<?xml version="1.0" encoding="UTF-8" standalone="no"?>
<svg xmlns="http://www.w3.org/2000/svg" width="644" height="313" version="1.1">
  <g>
    <path style="fill:none;stroke:#808080;stroke-width:10" d="m 542,67.987181 c 0,11.0457 -8.95431,20 -20,20 -11.04569,0 -20,-8.9543 -20,-20 0,-11.04569 8.95431,-20 20,-20 11.04569,0 20,8.95431 20,20 z" />
    <path style="fill:none;stroke:#2e54de;stroke-width:10" d="m 342,267.98718 c 0,11.0457 -8.95431,20 -20,20 -11.04569,0 -20,-8.9543 -20,-20 0,-11.04569 8.95431,-20 20,-20 11.04569,0 20,8.95431 20,20 z" />
    <path style="fill:none;stroke:#808080;stroke-width:10" d="m 142,67.987181 c 0,11.0457 -8.95431,20 -20,20 -11.04569,0 -20,-8.9543 -20,-20 0,-11.04569 8.95431,-20 20,-20 11.04569,0 20,8.95431 20,20 z" />
    <path style="fill:#808080" d="M 114,97.156251 114,102 l 0,136 c 0,20.92621 17.07379,38 38,38 l 131.15625,0 0.84375,0 0.5625,-0.59375 6,-6 L 292,268 l -1.4375,-1.4375 -6,-6 L 284,260 283.15625,260 152,260 c -12.34484,9.2e-4 -22,-9.65499 -22,-22 l 0,-136 0,-4.843749 -3.40625,3.437499 L 122,105.1875 117.40625,100.59375 114,97.156251 Z" />
    <path style="fill:#2e54de" d="m 522,98.000001 -1.40625,1.40625 -6,5.999999 L 514,106 514,106.84375 514,238 c 0,12.34501 -9.65499,22 -22,22 l -136,0 -4.84375,0 3.4375,3.40625 4.59375,4.59375 -4.59375,4.59375 -3.4375,3.40625 4.84375,0 136,0 c 20.92621,0 38,-17.07379 38,-38 l 0,-131.15625 0,-0.84375 -0.59375,-0.59375 -6,-5.999999 L 522,98.000001 Z" />
    <path style="fill:#808080" d="m 151.15625,60.000001 3.4375,3.40625 4.59375,4.59375 -4.59375,4.5625 -3.4375,3.4375 4.84375,0 327.15625,0 0.84375,0 0.5625,-0.59375 6,-6 1.4375,-1.40625 -1.4375,-1.4375 -6,-6 -0.5625,-0.5625 -0.84375,0 -327.15625,0 -4.84375,0 z" />
    <path style="fill:#808080" d="m 20,60.000001 0,2 0,12 0,2 2,0 61.15625,0 0.84375,0 0.5625,-0.59375 6,-6 1.4375,-1.40625 -1.4375,-1.4375 -6,-6 -0.5625,-0.5625 -0.84375,0 -61.15625,0 -2,0 z" />
    <path style="fill:#808080" d="m 551.15625,60.000001 3.4375,3.40625 4.59375,4.59375 -4.59375,4.59375 -3.4375,3.40625 4.84375,0 66,0 2,0 0,-2 0,-12 0,-2 -2,0 -66,0 -4.84375,0 z" />
    <circle r="10" cy="67.987183" cx="522" style="fill:#2e54de" />
    <text style="font-size:20px;text-align:center;text-anchor:middle;fill:#2e54de;font-family:sans-serif;" x="322" y="235.98718">translate</text>
    <text style="font-size:20px;text-align:center;text-anchor:middle;fill:#808080;font-family:sans-serif;" x="122" y="35.987183">fork</text>
    <text style="font-size:20px;text-align:center;text-anchor:middle;fill:#808080;font-family:sans-serif;" x="522" y="35.987183">merge</text>
  </g>
</svg>
